<svg width="21" height="20" viewBox="0 0 21 20" fill="none" xmlns="http://www.w3.org/2000/svg">
<path d="M20.7548 12.4483V19.8693H16.4523V12.9456C16.4523 11.2071 15.8311 10.0199 14.2733 10.0199C13.0845 10.0199 12.3783 10.8192 12.0664 11.5931C11.9531 11.8697 11.9239 12.2538 11.9239 12.6417V19.8689H7.62107C7.62107 19.8689 7.67883 8.14254 7.62107 6.9287H11.9242V8.76245C11.9156 8.77689 11.9034 8.79101 11.8957 8.80481H11.9242V8.76245C12.496 7.88263 13.5157 6.62484 15.8019 6.62484C18.6326 6.62484 20.7548 8.47431 20.7548 12.4483ZM3.11995 0.69104C1.64813 0.69104 0.685211 1.65717 0.685211 2.92652C0.685211 4.16892 1.62022 5.16296 3.06348 5.16296H3.09139C4.59209 5.16296 5.52517 4.16892 5.52517 2.92652C5.49661 1.65717 4.59209 0.69104 3.11995 0.69104ZM0.940942 19.8693H5.24217V6.9287H0.940942V19.8693Z" fill="#F1F2F2"/>
</svg>
