<svg width="22" height="18" viewBox="0 0 22 18" fill="none" xmlns="http://www.w3.org/2000/svg">
<path d="M21.0257 2.93593C20.2543 3.27797 19.4246 3.50931 18.5544 3.61263C19.4428 3.08032 20.1247 2.23805 20.4465 1.23278C19.6151 1.72595 18.6939 2.08371 17.7143 2.27655C16.9295 1.4407 15.8113 0.918335 14.5731 0.918335C12.1974 0.918335 10.2706 2.84512 10.2706 5.2208C10.2706 5.55803 10.3088 5.88627 10.3826 6.20136C6.80689 6.022 3.63643 4.30923 1.51424 1.70541C1.14396 2.34073 0.931548 3.08032 0.931548 3.86868C0.931548 5.36102 1.69167 6.67849 2.8455 7.44985C2.14056 7.42771 1.4767 7.23423 0.896895 6.91112C0.896574 6.9294 0.896574 6.94769 0.896574 6.96566C0.896574 9.05032 2.38025 10.7891 4.34811 11.1841C3.98746 11.2829 3.60659 11.3352 3.21482 11.3352C2.93695 11.3352 2.66774 11.3086 2.40528 11.2585C2.95267 12.9674 4.54127 14.2114 6.42442 14.2464C4.95166 15.4005 3.09674 16.0882 1.08043 16.0882C0.733896 16.0882 0.390571 16.0679 0.0546265 16.0278C1.95767 17.249 4.21976 17.961 6.64935 17.961C14.5631 17.961 18.891 11.4051 18.891 5.7191C18.891 5.53268 18.8868 5.3469 18.8784 5.16273C19.7198 4.55629 20.4491 3.79873 21.0257 2.93593Z" fill="#F1F2F2"/>
</svg>
